<svg width="12" height="15" viewBox="0 0 12 15" fill="none" xmlns="http://www.w3.org/2000/svg">
<path d="M0.402021 14.915C0.523351 14.9781 0.659578 15.007 0.796079 14.9986C0.932579 14.9901 1.0642 14.9446 1.17681 14.867L10.9273 8.11667C11.027 8.04765 11.1084 7.9555 11.1646 7.84813C11.2208 7.74075 11.2502 7.62135 11.2502 7.50014C11.2502 7.37893 11.2208 7.25953 11.1646 7.15215C11.1084 7.04478 11.027 6.95264 10.9273 6.88361L1.17681 0.133254C1.06429 0.0553944 0.932605 0.00980133 0.796027 0.0014114C0.659449 -0.00697854 0.523177 0.0221545 0.401968 0.085656C0.280759 0.149157 0.179232 0.244607 0.108378 0.361671C0.0375251 0.478735 4.61899e-05 0.612951 1.01879e-08 0.749786V14.2505C-2.25517e-05 14.3874 0.0374293 14.5217 0.108296 14.6389C0.179163 14.756 0.280741 14.8515 0.402021 14.915Z" fill="white"/>
</svg>
